HIERARCHY
ROOT Hips
{
	OFFSET 0.000000 0.000000 0.000000
	CHANNELS 6 Xposition Yposition Zposition Zrotation Yrotation Xrotation 
	JOINT LHipJoint
	{
		OFFSET 0.000000 0.000000 0.000000
		CHANNELS 3 Zrotation Yrotation Xrotation
		JOINT LeftUpLeg
		{
			OFFSET 1.363060 -1.794630 0.839290
			CHANNELS 3 Zrotation Yrotation Xrotation
			JOINT LeftLeg
			{
				OFFSET 2.448110 -6.726130 0.000000
				CHANNELS 3 Zrotation Yrotation Xrotation
				JOINT LeftFoot
				{
					OFFSET 2.562200 -7.039590 0.000000
					CHANNELS 3 Zrotation Yrotation Xrotation
					JOINT LeftToeBase
					{
						OFFSET 0.157640 -0.433110 2.322550
						CHANNELS 3 Zrotation Yrotation Xrotation
						End Site
						{
							OFFSET 0.000000 0.000000 0.000000
						}
					}
				}
			}
		}
	}
	JOINT RHipJoint
	{
		OFFSET 0.000000 0.000000 0.000000
		CHANNELS 3 Zrotation Yrotation Xrotation
		JOINT RightUpLeg
		{
			OFFSET -1.305520 -1.794630 0.839290
			CHANNELS 3 Zrotation Yrotation Xrotation
			JOINT RightLeg
			{
				OFFSET -2.542530 -6.985550 0.000000
				CHANNELS 3 Zrotation Yrotation Xrotation
				JOINT RightFoot
				{
					OFFSET -2.568260 -7.056230 0.000000
					CHANNELS 3 Zrotation Yrotation Xrotation
					JOINT RightToeBase
					{
						OFFSET -0.164730 -0.452590 2.363150
						CHANNELS 3 Zrotation Yrotation Xrotation
						End Site
						{
							OFFSET 0.000000 0.000000 0.000000
						}
					}
				}
			}
		}
	}
	JOINT LowerBack
	{
		OFFSET 0.000000 0.000000 0.000000
		CHANNELS 3 Zrotation Yrotation Xrotation
		JOINT Spine
		{
			OFFSET 0.028270 2.035590 -0.193380
			CHANNELS 3 Zrotation Yrotation Xrotation
			JOINT Spine1
			{
				OFFSET 0.056720 2.048850 -0.042750
				CHANNELS 3 Zrotation Yrotation Xrotation
				JOINT Neck
				{
					OFFSET 0.000000 0.000000 0.000000
					CHANNELS 3 Zrotation Yrotation Xrotation
					JOINT Neck1
					{
						OFFSET -0.054170 1.746240 0.172020
						CHANNELS 3 Zrotation Yrotation Xrotation
						JOINT Head
						{
							OFFSET 0.104070 1.761360 -0.123970
							CHANNELS 3 Zrotation Yrotation Xrotation
							End Site
							{
								OFFSET 0.000000 0.000000 0.000000
							}
						}
					}
				}
				JOINT LeftShoulder
				{
					OFFSET 0.000000 0.000000 0.000000
					CHANNELS 3 Zrotation Yrotation Xrotation
					JOINT LeftArm
					{
						OFFSET 3.362410 1.200890 -0.311210
						CHANNELS 3 Zrotation Yrotation Xrotation
						JOINT LeftForeArm
						{
							OFFSET 4.983000 -0.000000 -0.000000
							CHANNELS 3 Zrotation Yrotation Xrotation
							JOINT LeftHand
							{
								OFFSET 3.483560 -0.000000 -0.000000
								CHANNELS 3 Zrotation Yrotation Xrotation
								JOINT LeftFingerBase
								{
									OFFSET 0.000000 0.000000 0.000000
									CHANNELS 3 Zrotation Yrotation Xrotation
									JOINT LeftHandIndex1
									{
										OFFSET 0.715260 -0.000000 -0.000000
										CHANNELS 3 Zrotation Yrotation Xrotation
										End Site
										{
											OFFSET 0.000000 0.000000 0.000000
										}
									}
								}
								JOINT LThumb
								{
									OFFSET 0.000000 0.000000 0.000000
									CHANNELS 3 Zrotation Yrotation Xrotation
									End Site
									{
										OFFSET 0.000000 0.000000 0.000000
									}
								}
							}
						}
					}
				}
				JOINT RightShoulder
				{
					OFFSET 0.000000 0.000000 0.000000
					CHANNELS 3 Zrotation Yrotation Xrotation
					JOINT RightArm
					{
						OFFSET -3.136600 1.374050 -0.404650
						CHANNELS 3 Zrotation Yrotation Xrotation
						JOINT RightForeArm
						{
							OFFSET -5.241900 -0.000000 -0.000000
							CHANNELS 3 Zrotation Yrotation Xrotation
							JOINT RightHand
							{
								OFFSET -3.444170 -0.000000 -0.000000
								CHANNELS 3 Zrotation Yrotation Xrotation
								JOINT RightFingerBase
								{
									OFFSET 0.000000 0.000000 0.000000
									CHANNELS 3 Zrotation Yrotation Xrotation
									JOINT RightHandIndex1
									{
										OFFSET -0.622530 -0.000000 -0.000000
										CHANNELS 3 Zrotation Yrotation Xrotation
										End Site
										{
											OFFSET 0.000000 0.000000 0.000000
										}
									}
								}
								JOINT RThumb
								{
									OFFSET 0.000000 0.000000 0.000000
									CHANNELS 3 Zrotation Yrotation Xrotation
									End Site
									{
										OFFSET 0.000000 0.000000 0.000000
									}
								}
							}
						}
					}
				}
			}
		}
	}
}
MOTION
Frames: 8
Frame Time: 0.008333
7.015174 17.247062 -3.591579 -3.334713 -47.739220 0.855750 8.635783 6.554406 0.751967 -29.459491 -5.058061 6.625322 2.204932 8.487065 33.629544 0.736309 4.640025 -17.457354 0.020100 0.915900 2.517500 -13.106395 -6.282350 1.781439 29.514351 30.061646 -8.342740 0.485872 -6.535145 21.750168 -0.643593 -9.353174 -17.539634 -0.464000 4.369300 -12.118000 -1.135527 -0.257712 -7.708446 1.944074 -1.066126 -7.391869 3.508440 -0.170887 -6.540117 -1.528558 2.431521 -10.961225 10.074062 2.829753 13.046763 3.659000 1.709200 4.514000 4.918120 -10.141705 3.194939 -22.489440 6.367717 -45.025794 22.028411 -24.553093 -5.914318 -1.622326 -0.655004 -15.672866 -62.449253 24.715037 -38.824200 -7.125000 0.000000 0.000000 -65.694000 42.937600 7.146400 -5.226710 10.993851 7.219653 27.828077 -11.356663 -36.943738 -28.173657 25.605810 -3.534621 -0.314171 -0.427831 -66.921799 2.715339 3.285065 0.178500 7.125000 0.000000 0.000000 22.296100 -26.568300 10.752600 
7.022911 17.248969 -3.606099 -3.280226 -47.892467 0.813417 8.632918 6.551121 0.741527 -29.454680 -4.925556 6.362657 2.256720 8.567080 33.862521 0.714022 4.671923 -17.309694 0.009800 0.639700 1.757800 -13.109477 -6.275846 1.776678 29.475513 30.094076 -8.350315 0.511867 -6.480085 21.584125 -0.640140 -9.316851 -17.482031 -0.502600 4.544700 -12.614300 -1.218685 -0.187236 -7.640166 1.942704 -0.963401 -7.333270 3.579136 -0.113029 -6.527118 -1.546427 2.401746 -11.018300 10.112611 2.791439 12.922210 3.684600 1.691800 4.480400 4.883162 -10.146126 3.153608 -22.327082 5.774439 -44.399374 22.147559 -24.656065 -6.093985 -1.367997 -0.693108 -17.905926 -70.561207 17.927420 -42.132800 -7.125000 0.000000 0.000000 -50.448800 27.742400 39.594500 -5.209814 10.980531 7.172695 27.583141 -10.561112 -37.430735 -28.048705 25.416091 -3.691174 -0.827392 0.650995 -66.483837 13.433803 6.503176 1.276100 7.125000 0.000000 0.000000 28.526000 -24.078500 16.474800 
7.022063 17.251407 -3.607159 -3.185049 -48.013281 0.621456 8.631441 6.561434 0.747851 -29.536213 -4.826819 6.395587 2.304523 8.614710 34.045518 0.753915 4.475810 -17.464170 0.024500 1.010900 2.778700 -13.099466 -6.286649 1.749817 29.470182 29.910597 -8.205257 0.520634 -6.428817 21.497458 -0.641581 -9.248139 -17.452380 -0.554300 4.769000 -13.251000 -1.250951 -0.138842 -7.531025 1.935917 -0.886981 -7.251124 3.604894 -0.071381 -6.487837 -1.614633 2.404399 -11.203412 10.155007 2.788578 12.946067 3.725800 1.696400 4.538800 4.841847 -10.173779 3.108086 -22.237041 5.675539 -43.487453 22.347736 -24.881006 -6.289700 -1.186210 -0.609259 -20.748220 -78.125306 12.117799 -46.993000 -7.125000 0.000000 0.000000 -42.973500 6.082900 61.570800 -5.177325 10.985012 7.071050 27.319654 -9.816880 -38.607674 -27.638526 25.164346 -4.038261 -1.176899 1.671563 -65.018520 24.340631 10.120377 3.539200 7.125000 0.000000 0.000000 33.799500 -20.679600 24.252400 
7.020579 17.251195 -3.608536 -3.334354 -48.077381 0.685171 8.625746 6.566067 0.754605 -29.430075 -4.797939 6.379563 2.340430 8.652949 34.186473 0.787255 4.342098 -17.623938 0.040000 1.291600 3.551400 -13.104511 -6.299584 1.739333 29.633015 29.736050 -8.132798 0.530458 -6.399798 21.448786 -0.622090 -9.362968 -17.329015 -0.677600 5.263600 -14.661900 -1.111683 -0.103876 -7.451608 1.960369 -0.846873 -7.228647 3.605571 -0.052823 -6.545340 -1.725998 2.439038 -11.220751 10.190197 2.831851 13.016627 3.768900 1.715800 4.576800 4.811402 -10.202649 3.080031 -22.116928 5.949460 -42.333999 22.381359 -24.905477 -6.380271 -1.088764 -0.504115 -23.837968 -84.311323 7.287098 -54.578300 -7.125000 0.000000 0.000000 -41.617700 -5.783500 66.800500 -5.143673 10.986881 6.983407 27.068688 -9.385800 -39.481830 -27.241400 24.954117 -4.336504 -1.250114 2.301762 -63.760350 31.904515 12.556578 5.939200 7.125000 0.000000 0.000000 36.675700 -17.639800 31.094700 
7.022593 17.242081 -3.620195 -3.485011 -48.068107 0.801751 8.624677 6.568990 0.749490 -29.264731 -4.701344 6.239456 2.359456 8.688556 34.292192 0.743712 4.608985 -17.499331 0.005100 0.461500 1.268200 -13.115895 -6.310362 1.742980 29.775367 29.640360 -8.136570 0.547068 -6.380590 21.396570 -0.570576 -9.776321 -17.108861 -0.847200 5.870700 -16.409600 -1.062371 -0.067319 -7.239586 1.990375 -0.807488 -7.247298 3.673136 -0.022501 -6.733668 -1.859025 2.438193 -11.103677 10.216738 2.841827 12.964938 3.805100 1.710600 4.533700 4.793387 -10.236501 3.056895 -22.066402 6.339795 -41.293089 22.420743 -24.920381 -6.429685 -1.026643 -0.493036 -26.756772 -87.594139 2.767583 -56.023400 -7.125000 0.000000 0.000000 -41.776500 -13.217400 69.986200 -5.125876 10.998435 6.959098 26.955825 -9.416337 -39.911532 -27.122542 24.924646 -4.437677 -1.311718 2.426040 -63.587981 33.751554 13.859116 7.068200 7.125000 0.000000 0.000000 37.107000 -16.139400 33.450700 
7.024288 17.239219 -3.631111 -3.495647 -48.017815 0.855006 8.624450 6.562668 0.742756 -29.212406 -4.673089 6.083885 2.378707 8.724740 34.389168 0.725988 4.682936 -17.421983 0.001000 0.201300 0.553000 -13.124776 -6.311833 1.746936 29.776852 29.637839 -8.210757 0.560540 -6.382043 21.374744 -0.509014 -10.308655 -16.896557 -0.971200 6.274100 -17.581900 -1.142136 -0.051475 -7.013468 2.012417 -0.789001 -7.244504 3.777482 0.006045 -6.883688 -1.933632 2.447135 -10.959609 10.188229 2.876710 12.767738 3.799400 1.716900 4.419000 4.781166 -10.276347 3.031524 -22.190562 6.634512 -41.734956 22.612897 -25.162665 -6.520661 -0.998958 -0.492779 -28.271466 -88.751009 1.133986 -56.961500 -7.125000 0.000000 0.000000 -41.850000 -15.019800 70.491300 -5.112377 11.030652 6.966658 27.064835 -9.769948 -40.433220 -27.232402 25.082658 -4.425958 -1.437904 2.239225 -64.477324 31.904261 14.470531 6.983300 7.125000 0.000000 0.000000 36.265300 -16.000600 32.294800 
7.024500 17.240809 -3.640014 -3.569450 -47.935453 1.059448 8.621399 6.539890 0.733649 -29.135313 -4.780008 5.852799 2.399016 8.766521 34.481711 0.747328 4.499164 -17.455277 0.008400 0.591500 1.625300 -13.149843 -6.307001 1.759739 29.791425 29.739445 -8.383640 0.575825 -6.402235 21.368538 -0.385417 -11.157552 -16.272710 -1.113400 6.703400 -18.839600 -1.160767 -0.011793 -6.949319 2.027371 -0.740912 -7.207587 3.833334 0.043298 -6.855735 -2.080018 2.446938 -10.974732 10.213713 2.904421 12.550848 3.831800 1.722900 4.322600 4.771436 -10.339858 3.035209 -22.262257 6.785944 -43.188799 22.653747 -25.255101 -6.551485 -0.992818 -0.495560 -28.691220 -88.820086 1.094623 -57.532600 -7.125000 0.000000 0.000000 -41.916200 -14.075100 70.611000 -5.096484 11.083830 6.961642 27.350640 -10.677455 -40.722723 -27.476847 25.316882 -4.375584 -1.487322 1.970427 -66.435024 29.180795 13.474620 5.863900 7.125000 0.000000 0.000000 35.356400 -17.319600 29.581100 
7.023864 17.239643 -3.647962 -3.449884 -47.869735 1.111906 8.622130 6.524028 0.718963 -29.180768 -4.711962 5.593053 2.416330 8.811128 34.581350 0.735924 4.551156 -17.408031 0.002400 0.318300 0.874600 -13.151917 -6.306964 1.763029 29.645363 29.813970 -8.468435 0.601290 -6.370907 21.243125 -0.310145 -11.648314 -15.884166 -1.090800 6.637300 -18.645200 -1.289715 0.062576 -6.908358 1.998802 -0.634809 -7.152893 3.834692 0.108509 -6.737414 -2.059226 2.386440 -11.149552 10.110784 2.844689 12.449431 3.775300 1.696100 4.320000 4.769478 -10.388035 3.089997 -22.098452 6.574875 -46.182491 22.315424 -24.947648 -6.444869 -1.019387 -0.473018 -26.795975 -88.350894 1.832537 -57.527400 -7.125000 0.000000 0.000000 -41.973700 -12.366800 70.541300 -5.083448 11.157727 6.943255 27.769769 -11.934152 -41.201493 -27.751152 25.506949 -4.254810 -1.358911 1.718175 -68.198697 26.129898 10.687808 4.022800 7.125000 0.000000 0.000000 34.581800 -20.068700 25.750900 
